<svg width="20" height="14" viewBox="0 0 20 14" fill="none" xmlns="http://www.w3.org/2000/svg">
<path d="M10.8226 12.9052C10.7308 13.0232 10.6081 13.1197 10.4649 13.1863C10.3217 13.253 10.1623 13.2878 10.0006 13.2878C9.83879 13.2878 9.67945 13.253 9.53625 13.1863C9.39306 13.1197 9.27031 13.0232 9.17857 12.9052L0.178574 1.38981C0.0743982 1.257 0.0133077 1.10143 0.00193987 0.940013C-0.00942985 0.778598 0.029358 0.61751 0.114088 0.474251C0.198818 0.330992 0.32625 0.211041 0.482538 0.12743C0.638826 0.04382 0.817993 -0.000252157 1.00057 2.56925e-06L19.0006 1.17535e-06C19.1827 0.000667642 19.3612 0.0453066 19.5169 0.129117C19.6725 0.212928 19.7994 0.332739 19.884 0.475667C19.9685 0.618594 20.0075 0.779231 19.9966 0.9403C19.9858 1.10137 19.9256 1.25678 19.8226 1.38981L10.8226 12.9052Z" fill="#FF7807"/>
</svg>
